<svg id="Layer_1" data-name="Layer 1" xmlns="http://www.w3.org/2000/svg" viewBox="0 0 512 512"><title>infinity</title><path d="M358.41,102.4C273.72,102.4,204.8,171.33,204.8,256H307.2a51.21,51.21,0,0,1,102.42,0H512C512,171.33,443.09,102.4,358.41,102.4Z" fill="#656d78"/><path d="M204.8,256a51.2,51.2,0,1,1-102.39,0H0c0,84.69,68.94,153.6,153.62,153.6S307.2,340.68,307.2,256Z" fill="#ed7161"/><path d="M153.62,102.4C68.94,102.4,0,171.33,0,256H102.4a51.2,51.2,0,0,1,102.39,0H307.2C307.2,171.33,238.31,102.4,153.62,102.4Z" fill="#fc6"/><path d="M409.63,256a51.21,51.21,0,0,1-102.42,0H204.8c0,84.69,68.93,153.6,153.62,153.6S512,340.68,512,256Z" fill="#48cfad"/></svg>